<?xml version="1.0" standalone="no"?>
<!DOCTYPE svg PUBLIC "-//W3C//DTD SVG 20010904//EN"
 "http://www.w3.org/TR/2001/REC-SVG-20010904/DTD/svg10.dtd">
<svg width="3000" height="3000" xmlns="http://www.w3.org/2000/svg"><g fill="none" fill-rule="evenodd"><path fill="#90DFB1" d="M0 3000h3000V0H0z"/><g fill="#090909"><path d="M396 2119l27-166c7-44 8-64-23-64-46 0-82 117-82 208 0 31 6 66 32 66 18 0 45-38 46-44m36-226l10-67c2-18 9-54-14-54-9 0-20 8-30 15l-1-1c28-21 67-42 105-42 31 0 48 18 42 61l-49 314c-1 7-7 44 11 44 13 0 32-26 35-52h2c-7 48-50 74-88 74-30 0-59-9-59-62-22 38-59 60-94 60-49 0-87-44-87-108 0-96 79-188 181-188 13 0 25 2 36 6M747 1796c0 37-33 68-68 68-28 0-48-23-48-52 0-36 33-67 67-67 29 0 49 22 49 51zm-59 323c-1 7-7 44 12 44 13 0 31-26 35-52h2c-7 48-51 74-88 74-35 0-66-13-54-93l19-122c3-18 11-53-13-53-8 0-20 8-29 15l-1-1c28-21 67-42 105-42 31 0 46 18 39 61l-27 169zM431 1446c0-78-201-77-201-188 0-87 92-132 173-132 93 0 125 33 125 66 0 31-29 61-63 61-27 0-48-16-44-51 16-7 30-24 30-43 0-15-10-31-48-31-35 0-82 20-82 64 0 81 200 71 200 184 0 96-106 142-194 142-91 0-127-43-127-83 0-34 26-65 65-65 27 0 48 18 44 53-18 9-28 28-28 49 0 22 13 45 54 45 37 0 96-23 96-71M560 1225h25c38 0 75-3 98-20 19-21 25-58 31-90h2l-17 110h58v2h-58l-35 220c-2 15-7 50 12 50 17 0 33-26 37-51h1c-7 48-46 73-91 73-35 0-66-13-54-93l31-199h-40v-2zM962 1281c0-33-8-57-34-57-60 0-79 177-79 237 0 32 9 56 33 56 60 0 80-171 80-236m100 65c0 91-82 172-180 172-78 0-133-51-133-123 0-95 81-173 180-173 78 0 133 51 133 124M1132 1305c3-18 11-53-13-53-8 0-20 8-29 15l-1-1c28-21 67-42 105-42 31 0 50 17 41 61l-8 35c18-42 49-98 101-98 47 0 67 29 67 61 0 35-26 72-71 72-23 0-43-15-40-46 22-5 34-28 34-47 0-13-6-27-19-27-25 0-58 54-72 92l-28 186c-34-2-67 0-100 5l33-213zM1600 1131c0 36-33 68-68 68-28 0-48-23-48-53 0-36 33-66 67-66 29 0 49 22 49 51zm-59 323c-1 7-7 43 12 43 13 0 31-25 35-51h2c-7 48-51 73-88 73-35 0-66-13-54-92l19-122c3-19 11-54-13-54-8 0-20 9-29 16l-1-1c28-22 67-42 105-42 31 0 46 18 39 60l-27 170zM1724 1340c74 8 105-43 105-78 0-20-9-38-29-38-44 0-73 60-76 116m0 2v7c0 52 25 102 85 102 27 0 64-10 88-40l2 1c-36 59-90 106-161 106-68 0-117-44-117-117 0-94 80-179 184-179 43 0 105 11 105 62 0 40-54 79-186 58"/><g><path d="M615 2411l-7 129h-2c5-83-18-128-120-128l-60 381h57v2H259v-2h58l60-381c-102 0-138 45-161 128h-1l34-129h366zM712 2621c74 8 105-43 105-78 0-20-9-38-29-38-44 0-73 59-76 116m0 2v6c0 53 25 102 85 102 27 0 64-9 88-39h2c-36 59-90 107-161 107-68 0-117-44-117-118 0-93 80-178 184-178 43 0 105 10 105 61 0 41-54 80-186 59M971 2586c3-18 11-53-13-53-8 0-20 8-29 15l-1-1c28-22 67-42 105-42 31 0 50 17 41 60l-8 36c18-42 49-98 101-98 47 0 67 29 67 60 0 35-26 73-71 73-23 0-43-15-40-46 22-5 34-28 34-47 0-13-6-27-19-27-25 0-58 53-72 92l-28 186c-34-2-67 0-100 5l33-213zM1305 2586c3-18 11-53-13-53-8 0-20 8-29 15l-1-1c28-22 67-42 105-42 31 0 50 17 41 60l-8 36c18-42 49-98 101-98 47 0 67 29 67 60 0 35-26 73-71 73-23 0-43-15-40-46 22-5 34-28 34-47 0-13-6-27-19-27-25 0-58 53-72 92l-28 186c-34-2-67 0-100 5l33-213zM1781 2614c-46 26-80 41-83 116 0 18 6 37 27 37 20 0 36-24 39-44l17-109zm-18 118c-8 33-58 67-109 67-44 0-71-19-71-57 0-101 128-85 199-130l5-33c5-32 12-74-26-74-27 0-54 24-54 53 0 12 6 22 14 26-6 32-31 46-55 46-27 0-43-18-43-41 0-38 42-86 147-86 67 0 124 20 114 84l-23 147c-1 7-7 43 11 43 14 0 32-26 36-52h1c-7 49-50 74-88 74-30 0-62-11-57-67h-1z"/></g></g></g></svg>