<?xml version="1.0" standalone="no"?>
<!DOCTYPE svg PUBLIC "-//W3C//DTD SVG 20010904//EN"
 "http://www.w3.org/TR/2001/REC-SVG-20010904/DTD/svg10.dtd">
<svg version="1.0" xmlns="http://www.w3.org/2000/svg"
 width="3000.000000pt" height="3000.000000pt" viewBox="0 0 3000.000000 3000.000000"
 preserveAspectRatio="xMidYMid meet">
<metadata>
Created by potrace 1.11, written by Peter Selinger 2001-2013
</metadata>
<g transform="translate(0.000000,3000.000000) scale(0.100000,-0.100000)"
fill="#000000" stroke="none">
<path d="M15380 19174 c-36 -7 -108 -35 -160 -60 -79 -39 -110 -62 -180 -133
-138 -138 -200 -280 -200 -460 0 -211 100 -380 276 -468 l78 -38 130 0 c117 0
139 3 204 27 109 40 177 84 267 173 206 205 261 493 139 725 -102 194 -318
285 -554 234z"/>
<path d="M7107 18653 c-63 -315 -118 -481 -207 -617 -56 -86 -88 -112 -201
-165 -192 -90 -471 -131 -901 -131 -125 0 -198 -4 -198 -10 0 -6 74 -10 201
-10 l201 0 -6 -27 c-12 -59 -306 -1993 -317 -2087 -15 -127 -6 -370 16 -450
65 -233 211 -339 485 -352 386 -19 716 150 869 445 38 75 82 197 80 230 0 9
-10 -18 -23 -59 -52 -176 -159 -329 -261 -376 -92 -43 -158 -25 -198 56 -20
41 -22 60 -22 195 0 145 6 187 180 1288 l179 1137 293 0 c189 0 293 4 293 10
0 6 -104 10 -291 10 l-291 0 6 33 c3 17 40 253 81 522 41 270 78 502 81 518 3
15 2 27 -3 27 -5 0 -26 -84 -46 -187z"/>
<path d="M3850 18724 c-358 -42 -574 -104 -830 -235 -384 -198 -627 -493 -701
-851 -28 -139 -23 -356 11 -463 44 -138 114 -249 229 -366 167 -168 400 -307
876 -524 536 -244 738 -382 830 -569 33 -66 39 -89 43 -160 9 -166 -42 -291
-172 -422 -128 -128 -284 -212 -504 -272 -87 -23 -116 -26 -272 -26 -157 -1
-182 1 -245 22 -196 65 -297 207 -297 417 0 192 77 354 215 449 l57 39 0 73
c0 248 -128 408 -355 444 -304 48 -608 -141 -701 -435 -108 -341 64 -689 431
-873 447 -223 1187 -214 1775 23 451 181 774 482 898 835 50 142 66 239 65
395 0 109 -5 157 -21 216 -40 149 -120 277 -248 399 -183 174 -350 266 -959
530 -333 144 -490 235 -610 355 -108 108 -155 212 -155 345 0 155 54 277 174
395 68 68 98 89 186 132 170 84 351 121 528 110 211 -14 341 -80 392 -199 18
-42 21 -66 18 -133 -3 -72 -8 -91 -42 -159 -42 -83 -143 -189 -215 -225 -32
-17 -39 -26 -45 -60 -9 -60 11 -179 43 -246 54 -116 167 -194 310 -216 309
-47 633 175 706 482 39 169 -3 322 -126 454 -148 159 -367 251 -709 300 -109
15 -501 28 -580 19z"/>
<path d="M9090 17760 c-811 -99 -1436 -669 -1577 -1440 -24 -135 -24 -414 1
-530 81 -377 298 -661 631 -828 423 -212 982 -200 1460 32 635 308 1044 959
1012 1606 -30 597 -429 1034 -1047 1146 -102 19 -375 26 -480 14z m322 -42
c92 -39 149 -129 186 -293 21 -93 20 -434 -2 -685 -85 -971 -300 -1653 -583
-1846 -72 -50 -116 -64 -194 -64 -153 0 -256 99 -305 292 -22 87 -29 358 -15
559 55 788 221 1494 425 1814 49 76 139 170 195 203 95 55 195 62 293 20z"/>
<path d="M13180 17764 c-342 -69 -585 -304 -827 -799 -40 -82 -71 -139 -68
-125 3 14 18 84 34 155 44 199 54 276 49 377 -12 209 -106 322 -300 362 -90
19 -143 20 -258 6 -177 -22 -410 -100 -590 -197 -104 -56 -301 -184 -320 -209
-19 -22 -12 -19 80 44 101 69 165 95 227 90 66 -6 100 -29 126 -86 43 -92 36
-148 -157 -1395 -97 -625 -176 -1147 -176 -1158 0 -17 5 -20 28 -15 138 29
542 58 777 55 98 -1 180 2 182 7 1 5 66 419 143 919 156 1007 147 969 262
1199 107 213 224 384 344 502 138 135 267 175 349 109 59 -47 88 -113 93 -210
8 -143 -36 -267 -128 -368 -45 -49 -131 -103 -192 -121 -14 -4 -18 -17 -18
-60 0 -207 108 -350 297 -392 177 -39 393 18 549 145 110 90 199 230 240 381
27 98 25 284 -3 375 -62 196 -214 336 -423 390 -64 16 -272 28 -320 19z"/>
<path d="M17850 17759 c-356 -40 -698 -183 -971 -405 -102 -83 -266 -259 -341
-364 -304 -429 -407 -993 -262 -1437 171 -524 684 -810 1307 -728 361 47 697
223 993 520 117 117 235 263 328 404 88 133 92 149 15 70 -205 -211 -499 -330
-817 -330 -193 0 -330 36 -463 123 -201 129 -340 381 -378 683 -15 117 -23
275 -14 275 5 0 73 -9 153 -20 628 -85 1145 -23 1435 172 169 113 265 271 265
438 -1 287 -222 489 -622 569 -197 39 -443 51 -628 30z m268 -38 c188 -96 227
-403 87 -681 -136 -271 -400 -432 -748 -456 -51 -4 -120 -3 -152 1 l-58 7 6
86 c18 249 114 545 244 749 53 85 196 222 271 262 118 62 266 75 350 32z"/>
<path d="M15125 17739 c-173 -25 -401 -106 -580 -206 -114 -64 -308 -193 -301
-200 3 -3 43 20 90 52 182 121 286 121 348 2 43 -82 33 -178 -96 -993 -124
-787 -141 -934 -127 -1084 28 -289 135 -435 361 -491 80 -20 317 -17 400 5
291 77 491 235 605 479 34 71 65 172 65 211 0 32 -10 12 -26 -55 -9 -35 -35
-104 -59 -154 -78 -166 -180 -272 -271 -283 -39 -4 -47 -1 -78 30 -87 87 -83
149 94 1258 157 982 165 1056 126 1185 -39 133 -128 215 -264 244 -60 13 -199
13 -287 0z"/>
<path d="M7131 15514 c0 -11 3 -14 6 -6 3 7 2 16 -1 19 -3 4 -6 -2 -5 -13z"/>
<path d="M4840 12535 c-173 -28 -342 -88 -529 -186 -128 -67 -350 -211 -334
-216 6 -2 52 23 102 56 109 71 146 85 217 79 104 -9 148 -87 146 -263 0 -81
-101 -883 -117 -931 -2 -8 -29 -4 -84 12 -179 52 -398 53 -629 3 -622 -135
-1149 -621 -1362 -1256 -73 -220 -107 -441 -97 -648 24 -518 283 -894 687
-996 72 -18 103 -21 210 -16 198 8 349 59 526 177 101 67 264 232 331 333 l51
78 7 -78 c22 -247 105 -399 260 -473 133 -64 374 -77 550 -30 253 68 467 236
578 455 27 54 60 156 71 220 12 65 -9 28 -28 -50 -36 -147 -146 -329 -242
-397 -51 -37 -114 -47 -149 -24 -13 9 -35 35 -47 59 -21 38 -23 55 -22 172 1
118 24 279 253 1745 139 888 255 1653 258 1700 16 231 -71 397 -238 458 -82
30 -245 38 -369 17z m-685 -1458 c41 -21 71 -54 91 -102 25 -57 22 -240 -6
-420 -224 -1435 -279 -1755 -306 -1804 -40 -74 -166 -223 -237 -281 -95 -78
-156 -104 -223 -97 -141 15 -232 138 -275 377 -18 97 -18 492 0 650 82 740
289 1336 549 1582 77 72 138 106 209 116 63 10 160 -1 198 -21z"/>
<path d="M6850 12524 c-36 -7 -108 -35 -160 -60 -79 -39 -110 -62 -180 -133
-138 -138 -200 -280 -200 -460 0 -211 100 -380 276 -468 l78 -38 130 0 c117 0
139 3 204 27 109 40 177 84 267 173 206 205 261 493 139 725 -102 194 -318
285 -554 234z"/>
<path d="M6595 11089 c-173 -25 -401 -106 -580 -206 -114 -64 -308 -193 -301
-200 3 -3 43 20 90 52 182 121 286 121 348 2 43 -82 33 -178 -96 -993 -124
-787 -141 -934 -127 -1084 28 -289 135 -435 361 -491 80 -20 317 -17 400 5
291 77 491 235 605 479 34 71 65 172 65 211 0 32 -10 12 -26 -55 -9 -35 -35
-104 -59 -154 -78 -166 -180 -272 -271 -283 -39 -4 -47 -1 -78 30 -87 87 -83
149 94 1258 157 982 165 1056 126 1185 -39 133 -128 215 -264 244 -60 13 -199
13 -287 0z"/>
<path d="M2476 5838 c-8 -29 -81 -305 -161 -613 -80 -308 -150 -575 -155 -594
-21 -80 7 -8 60 152 161 485 364 757 690 922 201 101 494 165 763 165 l99 0
-6 -27 c-7 -31 -596 -3757 -596 -3767 0 -3 -128 -6 -284 -6 -179 0 -287 -4
-291 -10 -4 -7 370 -10 1114 -10 729 0 1121 3 1121 10 0 6 -106 11 -283 12
l-282 3 276 1755 c153 965 287 1820 300 1899 l22 144 151 -6 c400 -16 679
-122 848 -325 137 -165 201 -402 202 -754 1 -104 4 -188 9 -188 4 0 7 6 7 13
0 6 16 296 35 642 19 347 35 631 35 633 0 1 -823 2 -1830 2 l-1829 0 -15 -52z"/>
<path d="M7730 4959 c-356 -40 -698 -183 -971 -405 -102 -83 -266 -259 -341
-364 -304 -429 -407 -993 -262 -1437 171 -524 684 -810 1307 -728 361 47 697
223 993 520 117 117 235 263 328 404 88 133 92 149 15 70 -205 -211 -499 -330
-817 -330 -193 0 -330 36 -463 123 -201 129 -340 381 -378 683 -15 117 -23
275 -14 275 5 0 73 -9 153 -20 628 -85 1145 -23 1435 172 169 113 265 271 265
438 -1 287 -222 489 -622 569 -197 39 -443 51 -628 30z m268 -38 c188 -96 227
-403 87 -681 -136 -271 -400 -432 -748 -456 -51 -4 -120 -3 -152 1 l-58 7 6
86 c18 249 114 545 244 749 53 85 196 222 271 262 118 62 266 75 350 32z"/>
<path d="M11570 4964 c-342 -69 -585 -304 -827 -799 -40 -82 -71 -139 -68
-125 3 14 18 84 34 155 44 199 54 276 49 377 -12 209 -106 322 -300 362 -90
19 -143 20 -258 6 -177 -22 -410 -100 -590 -197 -104 -56 -301 -184 -320 -209
-19 -22 -12 -19 80 44 101 69 165 95 227 90 66 -6 100 -29 126 -86 43 -92 36
-148 -157 -1395 -97 -625 -176 -1147 -176 -1158 0 -17 5 -20 28 -15 138 29
542 58 777 55 98 -1 180 2 182 7 1 5 66 419 143 919 156 1007 147 969 262
1199 107 213 224 384 344 502 138 135 267 175 349 109 59 -47 88 -113 93 -210
8 -143 -36 -267 -128 -368 -45 -49 -131 -103 -192 -121 -14 -4 -18 -17 -18
-60 0 -207 108 -350 297 -392 177 -39 393 18 549 145 110 90 199 230 240 381
27 98 25 284 -3 375 -62 196 -214 336 -423 390 -64 16 -272 28 -320 19z"/>
<path d="M14910 4964 c-342 -69 -585 -304 -827 -799 -40 -82 -71 -139 -68
-125 3 14 18 84 34 155 44 199 54 276 49 377 -12 209 -106 322 -300 362 -90
19 -143 20 -258 6 -177 -22 -410 -100 -590 -197 -104 -56 -301 -184 -320 -209
-19 -22 -12 -19 80 44 101 69 165 95 227 90 66 -6 100 -29 126 -86 43 -92 36
-148 -157 -1395 -97 -625 -176 -1147 -176 -1158 0 -17 5 -20 28 -15 138 29
542 58 777 55 98 -1 180 2 182 7 1 5 66 419 143 919 156 1007 147 969 262
1199 107 213 224 384 344 502 138 135 267 175 349 109 59 -47 88 -113 93 -210
8 -143 -36 -267 -128 -368 -45 -49 -131 -103 -192 -121 -14 -4 -18 -17 -18
-60 0 -207 108 -350 297 -392 177 -39 393 18 549 145 110 90 199 230 240 381
27 98 25 284 -3 375 -62 196 -214 336 -423 390 -64 16 -272 28 -320 19z"/>
<path d="M17490 4963 c-260 -25 -416 -55 -572 -109 -365 -127 -600 -341 -669
-612 -41 -162 -9 -307 92 -417 79 -86 179 -125 319 -125 259 0 459 146 536
392 l18 58 -42 35 c-22 20 -53 61 -69 93 -24 49 -28 69 -28 142 1 108 29 194
95 288 59 83 131 144 226 188 160 75 331 65 420 -24 45 -45 71 -108 85 -206
14 -99 0 -245 -54 -590 l-32 -199 -65 -36 c-166 -93 -337 -154 -760 -272 -336
-94 -409 -117 -554 -176 -395 -160 -579 -389 -602 -748 -24 -366 165 -576 563
-626 304 -38 666 60 923 251 146 109 250 240 306 387 6 15 9 -17 10 -95 3
-294 119 -462 366 -529 99 -27 318 -24 428 5 96 26 225 84 297 133 129 88 253
238 307 374 28 70 60 194 52 202 -2 2 -9 -18 -15 -44 -30 -145 -107 -290 -201
-384 -170 -171 -295 -82 -277 196 4 50 63 449 132 887 78 494 125 824 125 870
-1 291 -169 498 -495 607 -113 37 -266 67 -415 81 -106 9 -369 11 -450 3z
m230 -1679 c-55 -350 -97 -592 -109 -625 -65 -173 -199 -308 -324 -325 -138
-19 -241 51 -283 191 -18 61 -20 246 -4 366 46 344 179 570 440 748 86 59 362
222 367 217 1 -1 -38 -259 -87 -572z"/>
</g>
</svg>
