<svg width="2238" height="235" xmlns="http://www.w3.org/2000/svg"><g fill="#090909" fill-rule="evenodd"><path d="M123.72 195.106c0-41.489-107.473-40.904-107.473-100.216 0-46.114 49.244-70.024 92.32-70.024 49.536 0 66.728 17.774 66.728 35.304 0 16.313-15.492 32.14-33.8 32.14-13.987 0-25.351-8.473-23.312-26.88 8.45-3.799 16.318-12.856 16.318-22.79 0-8.18-5.536-16.654-25.642-16.654-18.892 0-43.95 10.518-43.95 34.184 0 42.901 106.55 37.69 106.55 97.538 0 51.082-56.19 75.624-103.103 75.624C19.743 233.332.512 210.3.512 188.97c0-17.822 13.695-34.184 34.675-34.184 14.278 0 25.302 9.057 23.262 28.049-9.276 4.675-14.57 14.9-14.57 25.662 0 11.98 6.751 24.007 28.557 24.007 19.863 0 51.284-12.271 51.284-37.398M192.341 77.978h13.161c20.349 0 39.871-1.753 52.401-10.81 10.199-11.054 13.404-30.386 16.56-47.576h.875l-9.033 58.386h30.887v.926h-31.13l-18.357 116.772c-1.166 7.889-3.788 26.88 6.361 26.88 9.082 0 17.824-13.732 19.863-27.465h.534c-3.788 25.712-24.476 39.103-48.612 39.103-18.6 0-34.918-7.012-28.508-49.329l16.27-105.961H192.34v-.926zM405.854 107.176c0-17.238-4.079-30.045-17.774-30.045-32.004 0-42.203 93.983-42.203 125.538 0 17.238 4.905 29.801 17.726 29.801 32.053 0 42.251-90.817 42.251-125.294m53.324 34.477c0 48.744-43.708 91.694-95.866 91.694-41.377 0-70.467-27.172-70.467-65.74 0-50.497 43.125-91.693 95.526-91.693 41.668 0 70.807 27.172 70.807 65.739M496.723 120.017c1.409-9.593 5.828-28.292-7.042-28.292-4.08 0-10.441 4.383-15.686 8.181l-.291-.633c14.86-11.346 35.84-22.156 55.946-22.156 16.317 0 26.467 9.057 21.805 32.09l-4.08 18.7c9.325-22.157 25.643-51.96 53.567-51.96 24.768 0 35.55 15.486 35.55 32.14 0 18.7-13.987 38.518-37.59 38.518-12.48 0-22.97-7.888-21.222-24.542 11.607-2.63 18.066-14.61 18.066-24.835 0-6.964-3.497-14.268-10.199-14.268-13.403 0-31.178 28.292-38.171 48.744L531.98 230.46c-17.823-.925-35.258.244-52.741 2.873l17.483-113.315zM745.426 27.759c0 19.283-17.483 35.888-36.132 35.888-15.152 0-25.885-12.271-25.885-27.708 0-19.283 17.775-35.353 36.084-35.353 15.152 0 25.933 11.736 25.933 27.173zm-31.178 171.7c-.534 3.799-3.788 23.082 5.876 23.082 6.945 0 16.852-13.732 18.892-27.415h.874c-3.788 25.662-26.808 39.053-46.865 39.053-18.649 0-34.966-6.963-28.556-49.28l10.199-64.862c1.408-9.642 5.828-28.341-7.042-28.341-4.08 0-10.441 4.383-15.686 8.18l-.292-.583c14.861-11.395 35.84-22.157 55.946-22.157 16.318 0 24.428 9.593 20.932 32.09l-14.278 90.233zM811.634 138.707c39.337 4.09 55.655-23.082 55.655-41.489 0-10.47-4.711-20.111-15.492-20.111-23.554 0-38.706 31.555-40.163 61.6m0 .925v3.506c0 28 13.112 54.296 45.165 54.296 13.938 0 34.043-4.967 46.864-21.037l.583.292c-18.649 31.263-47.447 56.633-85.376 56.633-36.375 0-62.308-23.325-62.308-62.476 0-49.913 42.542-94.908 97.906-94.908 22.728 0 55.897 5.551 55.897 32.724 0 21.572-28.847 42.316-98.731 30.97M1076.747 199.197l13.986-87.945c3.74-23.617 4.371-34.135-11.947-34.135-24.767 0-43.659 62.233-43.659 110.685 0 16.07 3.157 34.72 16.852 34.72 9.907 0 24.185-19.868 24.768-23.325m19.231-119.743l4.954-35.889c1.408-9.69 4.662-28.633-7.576-28.633-4.371 0-10.49 4.383-15.735 8.181l-.583-.633c14.86-11.346 35.792-22.157 55.898-22.157 16.317 0 25.642 9.594 22.145 32.09l-25.933 167.076c-.583 3.75-3.788 23.033 5.827 23.033 6.994 0 16.9-13.732 18.94-27.416h.875c-3.788 25.663-26.76 39.103-46.865 39.103-16.026 0-31.47-4.675-31.178-32.967-11.947 20.403-31.421 32.09-50.362 32.09-25.933 0-46.039-23.325-46.039-57.51 0-50.789 41.96-99.874 96.4-99.874 6.994 0 13.356 1.46 19.232 3.506M1263.224 27.759c0 19.283-17.483 35.888-36.132 35.888-15.152 0-25.885-12.271-25.885-27.708 0-19.283 17.775-35.353 36.084-35.353 15.152 0 25.933 11.736 25.933 27.173zm-31.178 171.7c-.534 3.799-3.788 23.082 5.876 23.082 6.945 0 16.852-13.732 18.892-27.415h.874c-3.788 25.662-26.808 39.053-46.865 39.053-18.649 0-34.966-6.963-28.556-49.28l10.199-64.862c1.408-9.642 5.828-28.341-7.042-28.341-4.08 0-10.441 4.383-15.686 8.18l-.292-.583c14.861-11.395 35.84-22.157 55.946-22.157 16.318 0 24.428 9.593 20.932 32.09l-14.278 90.233zM1548.967 26.906l-3.788 68.905h-.874c2.331-44.07-9.616-68.028-63.765-68.028l-32.004 202.671h30.256v.828h-119.08v-.828h30.498l32.101-202.671c-54.198 0-73.72 23.958-85.619 68.028h-.631l18.066-68.905h194.84zM1600.902 138.707c39.337 4.09 55.655-23.082 55.655-41.489 0-10.47-4.711-20.111-15.492-20.111-23.554 0-38.706 31.555-40.163 61.6m0 .925v3.506c0 28 13.112 54.296 45.165 54.296 13.938 0 34.043-4.967 46.864-21.037l.583.292c-18.649 31.263-47.447 56.633-85.376 56.633-36.375 0-62.308-23.325-62.308-62.476 0-49.913 42.542-94.908 97.906-94.908 22.728 0 55.897 5.551 55.897 32.724 0 21.572-28.847 42.316-98.731 30.97M1738.436 120.017c1.408-9.593 5.828-28.292-7.042-28.292-4.08 0-10.441 4.383-15.686 8.181l-.291-.633c14.86-11.346 35.84-22.156 55.946-22.156 16.317 0 26.467 9.057 21.805 32.09l-4.08 18.7c9.325-22.157 25.643-51.96 53.567-51.96 24.768 0 35.55 15.486 35.55 32.14 0 18.7-13.987 38.518-37.59 38.518-12.48 0-22.97-7.888-21.222-24.542 11.607-2.63 18.066-14.61 18.066-24.835 0-6.964-3.497-14.268-10.199-14.268-13.403 0-31.178 28.292-38.171 48.744l-15.395 98.755c-17.823-.925-35.258.244-52.741 2.873l17.483-113.315zM1916.376 120.017c1.408-9.593 5.828-28.292-7.042-28.292-4.08 0-10.441 4.383-15.686 8.181l-.292-.633c14.861-11.346 35.84-22.156 55.947-22.156 16.317 0 26.467 9.057 21.805 32.09l-4.08 18.7c9.325-22.157 25.643-51.96 53.567-51.96 24.768 0 35.55 15.486 35.55 32.14 0 18.7-13.987 38.518-37.59 38.518-12.48 0-22.97-7.888-21.222-24.542 11.607-2.63 18.066-14.61 18.066-24.835 0-6.964-3.497-14.268-10.199-14.268-13.404 0-31.178 28.292-38.171 48.744l-15.395 98.755c-17.823-.925-35.258.244-52.741 2.873l17.483-113.315zM2169.445 134.947c-24.428 13.684-42.494 21.865-43.951 61.6-.291 9.934 2.914 19.868 13.987 19.868 11.024 0 19.182-12.855 20.93-23.666l9.034-57.802zm-9.567 62.77c-4.08 17.773-30.887 35.644-57.986 35.644-23.603 0-37.88-10.226-37.88-30.434 0-53.712 68.135-45.19 105.724-68.905l2.671-17.481c2.865-17.239 6.362-39.395-13.744-39.395-14.52 0-28.555 12.807-28.555 28.292 0 6.379 2.962 11.395 7.624 13.732-3.545 16.654-16.609 24.543-29.43 24.543-14.57 0-22.97-9.934-22.97-22.206 0-19.867 22.096-45.579 78.334-45.579 35.5 0 66.047 10.81 60.56 44.703l-12.239 77.962c-.583 3.798-3.788 23.033 5.828 23.033 7.285 0 17.192-13.684 19.231-27.416h.535c-3.788 25.711-26.76 39.151-46.865 39.151-16.026 0-32.878-5.892-30.547-35.645h-.291z"/></g></svg>